<svg xmlns="http://www.w3.org/2000/svg" width="206" height="52" viewBox="0 0 206 52" fill="none">
<path fill-rule="evenodd" clip-rule="evenodd" d="M53 0C52.4477 0 52 0.447716 52 1V51C52 51.5523 52.4477 52 53 52C53.5523 52 54 51.5523 54 51V1C54 0.447715 53.5523 0 53 0ZM48 5C48 4.44771 48.4477 4 49 4C49.5523 4 50 4.44772 50 5V47C50 47.5523 49.5523 48 49 48C48.4477 48 48 47.5523 48 47V5ZM1 6C0.447715 6 0 6.44771 0 7V45C0 45.5523 0.447715 46 1 46C1.55228 46 2 45.5523 2 45V7C2 6.44772 1.55228 6 1 6ZM5 10C4.44772 10 4 10.4477 4 11V41C4 41.5523 4.44772 42 5 42C5.55228 42 6 41.5523 6 41V11C6 10.4477 5.55228 10 5 10ZM8 13C8 12.4477 8.44771 12 9 12C9.55228 12 10 12.4477 10 13V39C10 39.5523 9.55228 40 9 40C8.44771 40 8 39.5523 8 39V13ZM13 12C12.4477 12 12 12.4477 12 13V39C12 39.5523 12.4477 40 13 40C13.5523 40 14 39.5523 14 39V13C14 12.4477 13.5523 12 13 12ZM16 17C16 16.4477 16.4477 16 17 16C17.5523 16 18 16.4477 18 17V35C18 35.5523 17.5523 36 17 36C16.4477 36 16 35.5523 16 35V17ZM21 20C20.4477 20 20 20.4477 20 21V31C20 31.5523 20.4477 32 21 32C21.5523 32 22 31.5523 22 31V21C22 20.4477 21.5523 20 21 20ZM24 18C24 17.4477 24.4477 17 25 17C25.5523 17 26 17.4477 26 18V34C26 34.5523 25.5523 35 25 35C24.4477 35 24 34.5523 24 34V18ZM29 18C28.4477 18 28 18.4477 28 19V33C28 33.5523 28.4477 34 29 34C29.5523 34 30 33.5523 30 33V19C30 18.4477 29.5523 18 29 18ZM32 19C32 18.4477 32.4477 18 33 18C33.5523 18 34 18.4477 34 19V33C34 33.5523 33.5523 34 33 34C32.4477 34 32 33.5523 32 33V19ZM37 19C36.4477 19 36 19.4477 36 20V32C36 32.5523 36.4477 33 37 33C37.5523 33 38 32.5523 38 32V20C38 19.4477 37.5523 19 37 19ZM40 13C40 12.4477 40.4477 12 41 12C41.5523 12 42 12.4477 42 13V39C42 39.5523 41.5523 40 41 40C40.4477 40 40 39.5523 40 39V13ZM45 7C44.4477 7 44 7.44772 44 8V44C44 44.5523 44.4477 45 45 45C45.5523 45 46 44.5523 46 44V8C46 7.44772 45.5523 7 45 7ZM56 8C56 7.44772 56.4477 7 57 7C57.5523 7 58 7.44772 58 8V44C58 44.5523 57.5523 45 57 45C56.4477 45 56 44.5523 56 44V8ZM61 14C60.4477 14 60 14.4477 60 15V37C60 37.5523 60.4477 38 61 38C61.5523 38 62 37.5523 62 37V15C62 14.4477 61.5523 14 61 14ZM64 24C64 23.4477 64.4477 23 65 23C65.5523 23 66 23.4477 66 24V28C66 28.5523 65.5523 29 65 29C64.4477 29 64 28.5523 64 28V24ZM69 16C68.4477 16 68 16.4477 68 17V35C68 35.5523 68.4477 36 69 36C69.5523 36 70 35.5523 70 35V17C70 16.4477 69.5523 16 69 16ZM72 9C72 8.44772 72.4477 8 73 8C73.5523 8 74 8.44772 74 9V43C74 43.5523 73.5523 44 73 44C72.4477 44 72 43.5523 72 43V9ZM77 6C76.4477 6 76 6.44771 76 7V45C76 45.5523 76.4477 46 77 46C77.5523 46 78 45.5523 78 45V7C78 6.44772 77.5523 6 77 6ZM80 13C80 12.4477 80.4477 12 81 12C81.5523 12 82 12.4477 82 13V39C82 39.5523 81.5523 40 81 40C80.4477 40 80 39.5523 80 39V13ZM85 10C84.4477 10 84 10.4477 84 11V41C84 41.5523 84.4477 42 85 42C85.5523 42 86 41.5523 86 41V11C86 10.4477 85.5523 10 85 10ZM88 11C88 10.4477 88.4477 10 89 10C89.5523 10 90 10.4477 90 11V41C90 41.5523 89.5523 42 89 42C88.4477 42 88 41.5523 88 41V11ZM93 16C92.4477 16 92 16.4477 92 17V35C92 35.5523 92.4477 36 93 36C93.5523 36 94 35.5523 94 35V17C94 16.4477 93.5523 16 93 16ZM96 23C96 22.4477 96.4477 22 97 22C97.5523 22 98 22.4477 98 23V29C98 29.5523 97.5523 30 97 30C96.4477 30 96 29.5523 96 29V23ZM101 24C100.448 24 100 24.4477 100 25V27C100 27.5523 100.448 28 101 28C101.552 28 102 27.5523 102 27V25C102 24.4477 101.552 24 101 24ZM104 22C104 21.4477 104.448 21 105 21C105.552 21 106 21.4477 106 22V30C106 30.5523 105.552 31 105 31C104.448 31 104 30.5523 104 30V22ZM109 18C108.448 18 108 18.4477 108 19V33C108 33.5523 108.448 34 109 34C109.552 34 110 33.5523 110 33V19C110 18.4477 109.552 18 109 18ZM112 17C112 16.4477 112.448 16 113 16C113.552 16 114 16.4477 114 17V35C114 35.5523 113.552 36 113 36C112.448 36 112 35.5523 112 35V17ZM117 18C116.448 18 116 18.4477 116 19V33C116 33.5523 116.448 34 117 34C117.552 34 118 33.5523 118 33V19C118 18.4477 117.552 18 117 18ZM120 17C120 16.4477 120.448 16 121 16C121.552 16 122 16.4477 122 17V35C122 35.5523 121.552 36 121 36C120.448 36 120 35.5523 120 35V17ZM125 19C124.448 19 124 19.4477 124 20V32C124 32.5523 124.448 33 125 33C125.552 33 126 32.5523 126 32V20C126 19.4477 125.552 19 125 19ZM128 13C128 12.4477 128.448 12 129 12C129.552 12 130 12.4477 130 13V39C130 39.5523 129.552 40 129 40C128.448 40 128 39.5523 128 39V13ZM133 17C132.448 17 132 17.4477 132 18V34C132 34.5523 132.448 35 133 35C133.552 35 134 34.5523 134 34V18C134 17.4477 133.552 17 133 17ZM136 12C136 11.4477 136.448 11 137 11C137.552 11 138 11.4477 138 12V40C138 40.5523 137.552 41 137 41C136.448 41 136 40.5523 136 40V12ZM141 13C140.448 13 140 13.4477 140 14V38C140 38.5523 140.448 39 141 39C141.552 39 142 38.5523 142 38V14C142 13.4477 141.552 13 141 13ZM144 17C144 16.4477 144.448 16 145 16C145.552 16 146 16.4477 146 17V35C146 35.5523 145.552 36 145 36C144.448 36 144 35.5523 144 35V17ZM149 22C148.448 22 148 22.4477 148 23V29C148 29.5523 148.448 30 149 30C149.552 30 150 29.5523 150 29V23C150 22.4477 149.552 22 149 22ZM152 25C152 24.4477 152.448 24 153 24C153.552 24 154 24.4477 154 25V27C154 27.5523 153.552 28 153 28C152.448 28 152 27.5523 152 27V25ZM157 22C156.448 22 156 22.4477 156 23V29C156 29.5523 156.448 30 157 30C157.552 30 158 29.5523 158 29V23C158 22.4477 157.552 22 157 22ZM160 20C160 19.4477 160.448 19 161 19C161.552 19 162 19.4477 162 20V32C162 32.5523 161.552 33 161 33C160.448 33 160 32.5523 160 32V20ZM165 17C164.448 17 164 17.4477 164 18V34C164 34.5523 164.448 35 165 35C165.552 35 166 34.5523 166 34V18C166 17.4477 165.552 17 165 17ZM168 20C168 19.4477 168.448 19 169 19C169.552 19 170 19.4477 170 20V32C170 32.5523 169.552 33 169 33C168.448 33 168 32.5523 168 32V20ZM173 21C172.448 21 172 21.4477 172 22V30C172 30.5523 172.448 31 173 31C173.552 31 174 30.5523 174 30V22C174 21.4477 173.552 21 173 21ZM176 21C176 20.4477 176.448 20 177 20C177.552 20 178 20.4477 178 21V31C178 31.5523 177.552 32 177 32C176.448 32 176 31.5523 176 31V21ZM181 17C180.448 17 180 17.4477 180 18V34C180 34.5523 180.448 35 181 35C181.552 35 182 34.5523 182 34V18C182 17.4477 181.552 17 181 17ZM184 21C184 20.4477 184.448 20 185 20C185.552 20 186 20.4477 186 21V31C186 31.5523 185.552 32 185 32C184.448 32 184 31.5523 184 31V21ZM189 17C188.448 17 188 17.4477 188 18V34C188 34.5523 188.448 35 189 35C189.552 35 190 34.5523 190 34V18C190 17.4477 189.552 17 189 17ZM192 19C192 18.4477 192.448 18 193 18C193.552 18 194 18.4477 194 19V33C194 33.5523 193.552 34 193 34C192.448 34 192 33.5523 192 33V19ZM197 20C196.448 20 196 20.4477 196 21V31C196 31.5523 196.448 32 197 32C197.552 32 198 31.5523 198 31V21C198 20.4477 197.552 20 197 20ZM200 23C200 22.4477 200.448 22 201 22C201.552 22 202 22.4477 202 23V29C202 29.5523 201.552 30 201 30C200.448 30 200 29.5523 200 29V23ZM205 24C204.448 24 204 24.4477 204 25V27C204 27.5523 204.448 28 205 28C205.552 28 206 27.5523 206 27V25C206 24.4477 205.552 24 205 24Z" fill="url(#paint0_linear_2160_1173)"/>
<defs>
<linearGradient id="paint0_linear_2160_1173" x1="0" y1="26" x2="206" y2="26" gradientUnits="userSpaceOnUse">
<stop stop-color="#FC4A1A"/>
<stop offset="1" stop-color="#F7B733"/>
</linearGradient>
</defs>
</svg>